<svg xmlns="http://www.w3.org/2000/svg" width="124" height="73.017" viewBox="0 0 124 73.017">
  <g id="Grupo_269" data-name="Grupo 269" transform="translate(-79.381 -281.522)">
    <g id="Grupo_267" data-name="Grupo 267" transform="translate(79.461 310.008)">
      <path id="Caminho_718" data-name="Caminho 718" d="M79.665,419.228v.145c0,3.133,1.606,6.869,9.256,6.869l2.568,0,2.335.05c3.679.09,3.679.128,3.679,2.3v.194c0,1.12,0,2-4.1,2H79.763v5.06H93.405c2.29,0,9.256,0,9.256-7.064v-.194c0-7.188-5.265-7.316-8.737-7.4l-2.371-.1H88.921c-2.624,0-3.547-.485-3.89-.8a.428.428,0,0,1-.175-.287l-.04-.137a1.715,1.715,0,0,1-.043-.493v-.145c0-1.464,0-1.954,3.661-1.954h14.229v-5.108H88.432C86.036,412.166,79.665,412.166,79.665,419.228Z" transform="translate(-79.665 -404.173)" fill="#fff"/>
      <path id="Caminho_719" data-name="Caminho 719" d="M275.835,412.166h-.121c-6.127,0-10.747,3.875-10.747,9.011v14.667h5.059V421.177c0-2.568,2.99-3.952,5.8-3.952a8.7,8.7,0,0,1,5.77,1.947,2.9,2.9,0,0,1,.912,2v14.667h5.058V421.177a8.044,8.044,0,0,0-2.378-5.573A13.787,13.787,0,0,0,275.835,412.166Z" transform="translate(-213.226 -404.173)" fill="#fff"/>
      <path id="Caminho_720" data-name="Caminho 720" d="M192.654,421.419a7.89,7.89,0,0,0-1.84-4.959l-.037-.1,0,.06c-.159-.194-.325-.385-.5-.569a8.728,8.728,0,0,0-.7-.608,12.847,12.847,0,0,0-8.159-2.732h-9.792v5.06h9.792a9.357,9.357,0,0,1,2.446.331,7.938,7.938,0,0,1,1.9.819,4.123,4.123,0,0,1,.4.274h-5.623c-2.542,0-10.279,0-10.279,8.379v.243c0,4.988,4.407,8.476,10.718,8.476a13.348,13.348,0,0,0,9.32-3.493,7.793,7.793,0,0,0,2.373-5.521v-5.458A1.122,1.122,0,0,0,192.654,421.419Zm-11.672,9.617c-1.328,0-5.66-.246-5.66-3.416v-.243c0-2.006.364-3.32,5.221-3.32H187.6v3.256h.008a2.741,2.741,0,0,1-.883,1.757A8.6,8.6,0,0,1,180.982,431.036Z" transform="translate(-144.967 -404.425)" fill="#fff"/>
      <path id="Caminho_721" data-name="Caminho 721" d="M363.709,384.413h-4.864v21.83c0,6.522,5.646,9.494,11.247,9.548l.782.009v-5.117H370.1c-1.069,0-6.391-.216-6.391-4.489v-9.168h7.166v-5.108h-7.166Z" transform="translate(-280.891 -384.169)" fill="#fff"/>
      <path id="Caminho_722" data-name="Caminho 722" d="M415.369,422.314v14.034h5.059V422.314c0-3.465,3.892-4.392,6.192-4.392h9.89v-5.057h-9.89C421.029,412.864,415.369,416.11,415.369,422.314Z" transform="translate(-321.632 -404.676)" fill="#fff"/>
      <rect id="Ret창ngulo_1" data-name="Ret창ngulo 1" width="5.254" height="5.204" transform="translate(118.594 0)" fill="#fff"/>
      <rect id="Ret창ngulo_2" data-name="Ret창ngulo 2" width="5.254" height="23.728" transform="translate(118.594 7.943)" fill="#fff"/>
    </g>
    <g id="Grupo_268" data-name="Grupo 268" transform="translate(79.381 343.986)">
      <path id="Caminho_723" data-name="Caminho 723" d="M390.346,513.259c-1.8,0-2.436,1.56-2.436,2.9s.638,2.9,2.436,2.9,2.426-1.56,2.426-2.9S392.137,513.259,390.346,513.259Z" transform="translate(-301.761 -511.016)" fill="none"/>
      <path  id="Caminho_724" data-name="Caminho 724" d="M152.214,513.259c-1.8,0-2.436,1.56-2.436,2.9s.638,2.9,2.436,2.9,2.426-1.56,2.426-2.9S154,513.259,152.214,513.259Z" transform="translate(-130.122 -511.016)" fill="none"/>
      <path fill="#fff" id="Caminho_725" data-name="Caminho 725" d="M82.971,514.062l-1.627-.408c-.648-.159-.949-.462-.949-.956,0-1.1,1-1.267,1.594-1.267a1.573,1.573,0,0,1,1.744,1.478l0,.076h.791v-.078a2,2,0,0,0-.569-1.459,2.786,2.786,0,0,0-1.979-.725c-2.312,0-2.379,1.781-2.379,1.984,0,1.161.836,1.522,1.565,1.707l1.487.37c.884.217,1.314.592,1.314,1.145,0,.943-1.035,1.295-1.688,1.295a2.308,2.308,0,0,1-1.695-.53,1.611,1.611,0,0,1-.4-1.208l0-.081h-.792l0,.076a2.21,2.21,0,0,0,.555,1.7,2.948,2.948,0,0,0,2.189.755c2.442,0,2.631-1.54,2.631-2.012C84.76,514.71,83.856,514.3,82.971,514.062Z" transform="translate(-79.381 -509.189)"/>
      <path fill="#fff" id="Caminho_726" data-name="Caminho 726" d="M150.164,510.724c-2.231,0-3.23,1.81-3.23,3.6s1,3.6,3.23,3.6,3.221-1.81,3.221-3.6S152.389,510.724,150.164,510.724Zm0,6.5c-1.8,0-2.436-1.56-2.436-2.9s.638-2.9,2.436-2.9,2.426,1.56,2.426,2.9S151.955,517.225,150.164,517.225Z" transform="translate(-128.072 -509.189)"/>
      <path fill="#fff" id="Caminho_727" data-name="Caminho 727" d="M211.02,511.233h-.794v6.924h4.534v-.708h-3.74Z" transform="translate(-173.691 -509.556)"/>
      <path fill="#fff" id="Caminho_728" data-name="Caminho 728" d="M269.733,515.5a2.2,2.2,0,0,1-.5,1.628,2.286,2.286,0,0,1-2.756,0,2.23,2.23,0,0,1-.5-1.63v-4.268h-.794v4.41a2.674,2.674,0,0,0,5.348,0v-4.41h-.794Z" transform="translate(-213.3 -509.556)"/>
      <path fill="#fff" id="Caminho_729" data-name="Caminho 729" d="M329.714,515.126a2.12,2.12,0,0,1-2.062,2.1c-1.8,0-2.435-1.56-2.435-2.9s.638-2.9,2.435-2.9a1.948,1.948,0,0,1,1.97,1.577l.014.063h.788l-.011-.089a2.642,2.642,0,0,0-2.762-2.259c-2.231,0-3.23,1.81-3.23,3.6,0,1.973,1.076,3.358,2.754,3.57l-.434.57.242.229.049-.025a1,1,0,0,1,.441-.067.293.293,0,0,1,.323.281c0,.3-.319.328-.416.328a2.141,2.141,0,0,1-.708-.126l-.072-.03-.192.444.068.033a2.08,2.08,0,0,0,.913.207c.534,0,1.108-.279,1.108-.893,0-.435-.325-.695-.871-.695-.038,0-.077,0-.116,0l.171-.226a2.821,2.821,0,0,0,2.825-2.79l.009-.088h-.795Z" transform="translate(-256.001 -509.189)"/>
      <path fill="#fff" id="Caminho_730" data-name="Caminho 730" d="M388.3,510.724c-2.231,0-3.23,1.81-3.23,3.6s1,3.6,3.23,3.6,3.22-1.81,3.22-3.6S390.521,510.724,388.3,510.724Zm2.426,3.6c0,1.336-.636,2.9-2.426,2.9s-2.436-1.56-2.436-2.9.638-2.9,2.436-2.9S390.723,512.992,390.723,514.328Z" transform="translate(-299.711 -509.189)"/>
      <path fill="#fff" id="Caminho_731" data-name="Caminho 731" d="M391.555,506.253a.383.383,0,0,1,.417-.4.977.977,0,0,1,.374.142c.049.026.1.052.152.077a1.69,1.69,0,0,0,.736.217c.551,0,.824-.522.891-.968l.014-.091h-.506l-.017.056c-.085.283-.2.4-.41.4a1.189,1.189,0,0,1-.466-.17l-.059-.03a1.594,1.594,0,0,0-.737-.217,1,1,0,0,0-.911.979l-.011.089h.533Z" transform="translate(-304.004 -505.226)"/>
      <path fill="#fff" id="Caminho_732" data-name="Caminho 732" d="M449.151,514.936h3.721v-.708h-3.721v-2.287h3.973v-.708h-4.767v6.924h4.814v-.708h-4.02Z" transform="translate(-345.33 -509.556)"/>
      <path fill="#fff" id="Caminho_733" data-name="Caminho 733" d="M507.794,514.062l-1.628-.408c-.648-.159-.949-.462-.949-.956,0-1.1,1-1.267,1.594-1.267a1.572,1.572,0,0,1,1.744,1.478l0,.076h.791v-.078a2,2,0,0,0-.569-1.459,2.785,2.785,0,0,0-1.978-.724c-2.312,0-2.379,1.781-2.379,1.984,0,1.162.836,1.522,1.565,1.707l1.487.37c.884.217,1.314.592,1.314,1.145,0,.943-1.036,1.295-1.688,1.295a2.309,2.309,0,0,1-1.695-.53,1.611,1.611,0,0,1-.4-1.209v-.081h-.792l0,.076a2.211,2.211,0,0,0,.555,1.7,2.947,2.947,0,0,0,2.188.755c2.442,0,2.632-1.54,2.632-2.012C509.583,514.71,508.679,514.3,507.794,514.062Z" transform="translate(-385.583 -509.189)"/>
    </g>
    <path id="Caminho_734" data-name="Caminho 734" d="M94.7,281.575c-10.728-.566-14.178,9.642-9.981,11,2.9.937,6.862-5.523,11.756-7.324a7.029,7.029,0,0,1,8.089,1.977,13.558,13.558,0,0,1-18.331,19.291c4.9,2.177,8.306-3.11,6.35-5.864-2.343-3.3-5.9.149-9.965-2.139-2.317-1.307-2.86-4.537-2.169-7.043a13.558,13.558,0,0,1,14.251-9.9Z" transform="translate(-0.568)" fill="#fff"/>
    <path id="Caminho_735" data-name="Caminho 735" d="M209.786,281.575c-10.728-.566-14.178,9.642-9.981,11,2.9.937,6.862-5.523,11.756-7.324a7.029,7.029,0,0,1,8.089,1.977,13.558,13.558,0,0,1-18.331,19.291c4.9,2.177,8.307-3.11,6.35-5.864-2.343-3.3-5.9.149-9.965-2.139-2.317-1.307-2.86-4.537-2.169-7.043a13.558,13.558,0,0,1,14.251-9.9Z" transform="translate(-83.519)" fill="#fff"/>
    <path id="Caminho_736" data-name="Caminho 736" d="M324.346,281.575c-10.728-.566-14.178,9.642-9.981,11,2.9.937,6.862-5.523,11.756-7.324a7.029,7.029,0,0,1,8.089,1.977,13.558,13.558,0,0,1-18.331,19.291c4.9,2.177,8.307-3.11,6.35-5.864-2.343-3.3-5.9.149-9.965-2.139-2.317-1.307-2.86-4.537-2.169-7.043a13.558,13.558,0,0,1,14.251-9.9Z" transform="translate(-166.091)" fill="#fff"/>
    <path id="Caminho_737" data-name="Caminho 737" d="M441.1,281.575c-10.727-.566-14.178,9.642-9.981,11,2.9.937,6.862-5.523,11.756-7.324a7.029,7.029,0,0,1,8.089,1.977,13.558,13.558,0,0,1-18.331,19.291c4.9,2.177,8.307-3.11,6.35-5.864-2.343-3.3-5.9.149-9.965-2.139-2.317-1.307-2.86-4.537-2.169-7.043a13.558,13.558,0,0,1,14.251-9.9Z" transform="translate(-250.245)" fill="#fff"/>
  </g>
</svg>
